{"title":"Green Lantern 2011 Cam x264 Feel-Free","uid":6484605,"size":991538633,"categoryP":"video","categoryS":"movies","magnet":"?xt=urn:btih:dbc1bd8965506d8406247396ad7a659bc3b1b69c&amp;dn=Green+Lantern+2011+Cam+x264+Feel-Free&amp;tr=udp%3A%2F%2Ftracker.openbittorrent.com%3A80&amp;tr=udp%3A%2F%2Fopen.demonii.com%3A1337&amp;tr=udp%3A%2F%2Ftracker.coppersurfer.tk%3A6969&amp;tr=udp%3A%2F%2Fexodus.desync.com%3A6969","seeders":0,"leechers":1,"uploader":".BONE.","files":10,"time":1308663033,"description":"\nGenre:Action | Crime | Sci-Fi\nLanguage:English\n &lt;a href=&quot;\nhttp://www.imdb.com/title/tt1133985/&quot; rel=&quot;nofollow&quot; target=&quot;_NEW&quot;&gt;\nhttp://www.imdb.com/title/tt1133985/&lt;/a&gt;\n\nSource:Green Lantern DVD TS/IMAGINE Thanks!\n\nFormat : MPEG-4\nFormat profile : Base Media\nCodec ID : isom\nFile size : 944 MiB\nDuration : 1h 40mn\nOverall bit rate : 1 318 Kbps\n\nVideo\nID : 1\nFormat : AVC\nFormat/Info : Advanced Video Codec\nFormat profile : &lt;a class=&quot;__cf_email__&quot; href=&quot;/cdn-cgi/l/email-protection&quot; data-cfemail=&quot;7830111f1038344c5649&quot;&gt;[email&amp;#160;protected]&lt;/a&gt;&lt;script cf-hash='f9e31' type=&quot;text/javascript&quot;&gt;\n/* &lt;![CDATA[ */!function(){try{var t=&quot;currentScript&quot;in document?document.currentScript:function(){for(var t=document.getElementsByTagName(&quot;script&quot;),e=t.length;e--;)if(t[e].getAttribute(&quot;cf-hash&quot;))return t[e]}();if(t&amp;&amp;t.previousSibling){var e,r,n,i,c=t.previousSibling,a=c.getAttribute(&quot;data-cfemail&quot;);if(a){for(e=&quot;&quot;,r=parseInt(a.substr(0,2),16),n=2;a.length-n;n+=2)i=parseInt(a.substr(n,2),16)^r,e+=String.fromCharCode(i);e=document.createTextNode(e),c.parentNode.replaceChild(e,c)}}}catch(u){}}();/* ]]&gt; */&lt;/script&gt;\nFormat settings, CABAC : Yes\nFormat settings, ReFrames : 3 frames\nCodec ID : avc1\nCodec ID/Info : Advanced Video Coding\nDuration : 1h 40mn\nBit rate mode : Variable\nBit rate : 1 094 Kbps\nMaximum bit rate : 3 554 Kbps\nWidth : 720 pixels\nHeight : 320 pixels\nDisplay aspect ratio : 2.25:1\nFrame rate mode : Constant\nFrame rate : 25.000 fps\nColor space : YUV\nChroma subsampling : 4:2:0\nBit depth : 8 bits\nScan type : Progressive\nBits/(Pixel*Frame) : 0.190\nStream size : 781 MiB (83%)\nWriting library : x264\n\nAudio\nID : 2\nFormat : AAC\nFormat/Info : Advanced Audio Codec\nFormat version : Version 4\nFormat profile : LC\nFormat settings, SBR : No\nCodec ID : 40\nDuration : 1h 40mn\nBit rate mode : Variable\nBit rate : 224 Kbps\nMaximum bit rate : 261 Kbps\nChannel(s) : 2 channels\nChannel positions : Front: L R\nSampling rate : 44.1 KHz\nStream size : 160 MiB (17%)\n\n\nPlot:\nA test pilot is granted a mystical green ring that bestows him with otherworldly powers, as well as membership into an intergalactic squadron tasked with keeping peace within the universe.\n &lt;a href=&quot;\nhttp://leetleech.org/images/42556610863714022484.png&quot; rel=&quot;nofollow&quot; target=&quot;_NEW&quot;&gt;\nhttp://leetleech.org/images/42556610863714022484.png&lt;/a&gt;\n &lt;a href=&quot;\nhttp://leetleech.org/images/78513779424773968092.png&quot; rel=&quot;nofollow&quot; target=&quot;_NEW&quot;&gt;\nhttp://leetleech.org/images/78513779424773968092.png&lt;/a&gt;\n &lt;a href=&quot;\nhttp://leetleech.org/images/93105160487460220308.png&quot; rel=&quot;nofollow&quot; target=&quot;_NEW&quot;&gt;\nhttp://leetleech.org/images/93105160487460220308.png&lt;/a&gt;\n &lt;a href=&quot;\nhttp://leetleech.org/images/24562402414499453790.png&quot; rel=&quot;nofollow&quot; target=&quot;_NEW&quot;&gt;\nhttp://leetleech.org/images/24562402414499453790.png&lt;/a&gt;\n &lt;a href=&quot;\nhttp://leetleech.org/images/51833900741297543193.png&quot; rel=&quot;nofollow&quot; target=&quot;_NEW&quot;&gt;\nhttp://leetleech.org/images/51833900741297543193.png&lt;/a&gt;\n &lt;a href=&quot;\nhttp://leetleech.org/images/68556368758581965358.png&quot; rel=&quot;nofollow&quot; target=&quot;_NEW&quot;&gt;\nhttp://leetleech.org/images/68556368758581965358.png&lt;/a&gt;\n","torrent":{"xt":"urn:btih:dbc1bd8965506d8406247396ad7a659bc3b1b69c","amp;dn":"Green+Lantern+2011+Cam+x264+Feel-Free","amp;tr":["udp%3A%2F%2Ftracker.openbittorrent.com%3A80","udp%3A%2F%2Fopen.demonii.com%3A1337","udp%3A%2F%2Ftracker.coppersurfer.tk%3A6969","udp%3A%2F%2Fexodus.desync.com%3A6969"],"infoHash":"dbc1bd8965506d8406247396ad7a659bc3b1b69c","infoHashBuffer":{"type":"Buffer","data":[219,193,189,137,101,80,109,132,6,36,115,150,173,122,101,155,195,177,182,156]},"announce":[],"urlList":[]}}